<?xml version="1.0" encoding="UTF-8"?>
<svg version="1.1" viewBox="0 0 1600 1600" width="1280" height="1280" xmlns="http://www.w3.org/2000/svg">
<path transform="translate(0)" d="m0 0h1600v1600h-1600z" fill="#02325B"/>
<path transform="translate(786,502)" d="m0 0h26l6 3 3 2v2l5 2 5 4v2l4 1 5 4 1 2 4 2v2l4 1 2 4 4 1 5 4v2l5 2 4 3v2l5 2v2l5 2 4 3v2l5 2v2l5 2 5 5 2 1v2h2v2l8 4 9 9 5 3 14 12 11 8 7 6 13 10 5 4v2l4 1 1 3 4 1 9 7 1 2 5 3 12 10 10 8 13 11 10 8 17 13 10 9 7 11 1 5-15 11-16 12-6 4-1 4 2 6 6 3 13 11 10 6 11 9 6 8 2-1 2 17 2 33 6 64 1 1 1 8 9-3 34-1h39l31-2h28l11 2 2 5v7l1 2-4 5-3 3-6 7-21 14h-3v2l-6 2v2l-18 10-16 9-7 4-13 7-14 9-6 3v6l8 11 2 10-2 12-7 10-5 7-6 4-4 2-2 4-6 6h-2l-2 4-5 6-8 6-7 6-8 6-8 11-1 2h-2l-1 5-9 16-3 4h-2l-2 4-6 7-4 4-6 9 16 1v1h24l12-1 22 2 18 2 15 4h8l9 2v2l10 2 13 4 9 6v4l-6 4-14 3-19 2h-18v2l-8 1-46-1-30-1-18-1-9-1h-8l-1 2 14 1 4 1 33 2 16 1 13 1 9 1h53l50-2h66l26 1v1l-10 1h-35l-19 1-44 2-21 2-3 2-1 4 10 3v1h-15l-18-2-20-2-15-3-14-1-21-3h-16l-21-1-20-1h-11l-14 2h-10l-28-4h-16l-18 2-9 3-5 2h-5l-1 7 5 5 3 4 2 6 6 7 22 15 15 7 17 8 11 8 13 8 11 7 11 6v2l5 1 9 6 8 6 17 9 10 7 11 10 8 7 8 9 7 12 3 8 6 29 2 16 2 24 1 19v71l-1 27v21l-1 5h-643l-1-3-2-24-2-13v-38l-1-25 1-6 1-11v-7l1-3 2-27 1-11 4-21 3-3 2-10 4-15 4-10 6-17 8-9 6-3 6-1h12l21 1 14-1 2 1v-4l-4-1 3-1 18-2-1 3-7 2-8-1 1 2 12-1 10-1v-2l9-1h2l1-3 7-2-5-1-1 2h-5v-3l6-3 1-1h5l1-3 5-3 5-2 3-3 1 3-1 3-3 1v2l5-3 2-3h2l2-5 3-6 4-3 2-4 5-3 2-3 6-1 2-4 7-5 1-2h2l1-3 5-4 1-2h2l2-4 11-10 9-6 10-6 14-10 15-10 4-2 2-2 7-4 3-1v-2l10-6 3-4-8-1-40 3-32 2-25 2-34 2h-20l-28-2-13-2-7-3-6-4 2-7v-3l8-1 1-4h6l6-4 9-3 4-2 9-2 7-4 14-4 12-5 17-5 6-2 9-2 10-2 10-1v-2h7l4-9 2-6-6-8 4 2 16 12 14 10 5 5 11 8 30 21 16 12 31 1 15 8 10 3v-2l-2-1 2-1 4 2-2-9v-9h-2v-2l-4-2v-3l13-10 2-6h-2l-1-2-6-2-22-4-15-7-8-5-14-6v-3h-2l-3-11-4-1-6-2-2-5v-10l4-8 5-2 1-6 5-9 2-9-4-18 3-8 13-10 11-7 16-13 5-6h2l2-4 9-9 9-11 8-10 6-8 9-9h2v-2l6-5 5-3 5-5h2l1-4 8-7 8-8 5-3 4-4 7-6 3-3 5-2 1-3 15-7 9-2 15-3 1-3-5-5h3l15 6 5 1v-2h2l1-3h7l1-16v-18l-1-8v-28l1-6v-8l-3-9-3-4-3-2 14-1 3 4 3 13 1 9 1-11-1-18-1-5-7 3-5 2h-7l-3-3v-6l5-9 5-6 6 2 7 4v10h3l1-11-3-1-5-5-3-1h-8l2-1-2-5-8-7-2-1v-2l-4-2-10-8-11-9-9-7-12-12-11-7-9-6-22-18-2-4-4-2-1-3-4-2-5-4v-2l-4-2-8-6-10-8-5-3-12-4-7-6-3-7v-2l-12-4-5-2-3-4v-2h-2l-4-9-3-5 2-1v-2l-3-1v33l2 39 1 32 1 17 1 33 4 9 9 16 1 4-29 1-3 1-5 5-14 11-3 1-5 5h-3v2l-15 11-5 2-1 3-5 3h-2l-1 3-5 3-18 14h-3l-1 3-6 4h-2v2l-10 7h-2v2l-4 1v2l-4 1v2l-4 1-1 3-4 3h-3l-1 3h-3l-1 3-4 3h-3l-1 3-8 6-3 1-3 3h-2l-1 3h-3l-1 3-3 1-3 3h-2v2l-4 1v2l-4 1v2l-4 1v2h-3v2l-11 8-19 14-13 10-12 9-21 16-13 9-2 1-1 3v18l-3-1-5-9-7-11v-54l2-151 1-44 10-18 9-10 20-15 10-8 3-1v-2l5-3h2v-2l17-13 10-8h2v-2l5-2v-2l4-1v-2l5-2v-2l10-7 5-5h3v-2l9-6 3-3 5-4h2v-2l5-3 11-9 28-21 11-9 11-8 16-13 17-13 16-13 19-14z" fill="#0C5A87"/>
<path transform="translate(786,502)" d="m0 0h26l6 3 3 2v2l5 2 5 4v2l4 1 5 4 1 2 4 2v2l4 1 2 4 4 1 5 4v2l5 2 4 3v2l5 2v2l5 2 4 3v2l5 2v2l5 2 5 5 2 1v2h2v2l8 4 9 9 5 3 14 12 11 8 7 6 13 10 5 4v2l4 1 1 3 4 1 9 7 1 2 5 3 12 10 10 8 13 11 10 8 17 13 10 9 7 11 1 5-15 11-16 12-6 4-1 4 2 6 6 3 13 11 10 6 11 9 6 8 2-1 2 17 2 33 8 87 2 17 1-7 5-2 11 1h38l12 2 4 2 1 5 1 7-4 4-2 4-10 10-8 7h-2v2l-13 8-5 3-3 1-1 6 4 6 1 8-4 10-6 8-12 7-14 7-8 7-1 2h-2l-2 5-4 6-4 7-4 12h-2l-2 5-8 15-8 11-7 5-4 6-6 4-7 8-6 5-10 10-12 9-10 8-6 5-8 5-12 8-9 2-10-1-21-7-7-1h-11v2l-12 5-6 7-1 1h-7l-11-4-2-7-2-6-2-12h-2l-1-2-4-1-6 2v-5h-2l-1-2-6-2-22-4-15-7-8-5-14-6v-3h-2l-3-11-4-1-6-2-2-5v-10l4-8 5-2 1-6 5-9 2-9-4-18 3-8 13-10 11-7 16-13 5-6h2l2-4 9-9 9-11 8-10 6-8 9-9h2v-2l6-5 5-3 5-5h2l1-4 8-7 8-8 5-3 4-4 7-6 3-3 5-2 1-3 15-7 9-2 15-3 1-3-5-5h3l15 6 5 1v-2h2l1-3h7l1-16v-18l-1-8v-28l1-6v-8l-3-9-3-4-3-2 14-1 3 4 3 13 1 9 1-11-1-18-1-5-7 3-5 2h-7l-3-3v-6l5-9 5-6 6 2 7 4v10h3l1-11-3-1-5-5-3-1h-8l2-1-2-5-8-7-2-1v-2l-4-2-10-8-11-9-9-7-12-12-11-7-9-6-22-18-2-4-4-2-1-3-4-2-5-4v-2l-4-2-8-6-10-8-5-3-12-4-7-6-3-7v-2l-12-4-5-2-3-4v-2h-2l-4-9-3-5 2-1v-2l-3-1v33l2 39 1 32 1 17 1 33 4 9 9 16 1 4-29 1-3 1-5 5-14 11-3 1-5 5h-3v2l-15 11-5 2-1 3-5 3h-2l-1 3-5 3-18 14h-3l-1 3-6 4h-2v2l-10 7h-2v2l-4 1v2l-4 1v2l-4 1-1 3-4 3h-3l-1 3h-3l-1 3-4 3h-3l-1 3-8 6-3 1-3 3h-2l-1 3h-3l-1 3-3 1-3 3h-2v2l-4 1v2l-4 1v2l-4 1v2h-3v2l-11 8-19 14-13 10-12 9-21 16-13 9-2 1-1 3v18l-3-1-5-9-7-11v-54l2-151 1-44 10-18 9-10 20-15 10-8 3-1v-2l5-3h2v-2l17-13 10-8h2v-2l5-2v-2l4-1v-2l5-2v-2l10-7 5-5h3v-2l9-6 3-3 5-4h2v-2l5-3 11-9 28-21 11-9 11-8 16-13 17-13 16-13 19-14z" fill="#A55D82"/>
<path transform="translate(805,562)" d="m0 0 2 3 2 14 4 6v2l4 2 10 10v2l4 1 9 6v2l4 2 15 13 7 5v2l4 2 11 9 13 10 10 8 4 2v3l5 2 9 7 5 8v2l5 2 5 4 11 7 15 10 11 8 15 11 11 7 11 9 2 2h7l3-1 1-6v-24l-1-35 1-2 6 1 6 4 5 2 11 9 9 7 9 8 7 11 1 5-15 11-16 12-6 4-1 4 2 6 6 3 13 11 10 6 11 9 6 8 2-1 2 17 2 33 8 87 2 17 1-7 5-2 11 1h38l12 2 4 2 1 5 1 7-4 4-2 4-10 10-8 7h-2v2l-13 8-5 3-3 1-1 6 4 6 1 8-4 10-6 8-12 7-14 7-8 7-1 2h-2l-2 5-4 6-4 7-4 12h-2l-2 5-8 15-8 11-7 5-4 6-6 4-7 8-6 5-10 10-12 9-10 8-6 5-8 5-12 8-9 2-10-1-21-7-7-1h-11v2l-12 5-6 7-1 1h-7l-11-4-2-7-2-6-2-12h-2l-1-2-4-1-6 2v-5h-2l-1-2-6-2-22-4-15-7-8-5-14-6v-3h-2l-3-11-4-1-6-2-2-5v-10l4-8 5-2 1-6 5-9 2-9-4-18 3-8 13-10 11-7 16-13 5-6h2l2-4 9-9 9-11 8-10 6-8 9-9h2v-2l6-5 5-3 5-5h2l1-4 8-7 8-8 5-3 4-4 7-6 3-3 5-2 1-3 15-7 9-2 15-3 1-3-5-5h3l15 6 5 1v-2h2l1-3h7l1-16v-18l-1-8v-28l1-6v-8l-3-9-3-4-3-2 14-1 3 4 3 13 1 9 1-11-1-18-1-5-7 3-5 2h-7l-3-3v-6l5-9 5-6 6 2 7 4v10h3l1-11-3-1-5-5-3-1h-8l2-1-2-5-8-7-2-1v-2l-4-2-10-8-11-9-9-7-12-12-11-7-9-6-22-18-2-4-4-2-1-3-4-2-5-4v-2l-4-2-8-6-10-8-5-3-12-4-7-6-3-7v-2l-12-4-5-2-3-4v-2h-2l-4-9-3-5 2-1v-2l-3-1-2 3z" fill="#4C3E71"/>
<path transform="translate(526,1392)" d="m0 0 5 1 11 3-1 2 9 1 2 2 6 4 2 3-2 1 5 3 18 6v2l5 2 12 5 11 6 5 4 1 2 4 1 1 4h5l9 8 1 2 7 3 5 5 15 12 6 4v2l5 2 3 2v2l4 2 10 7v2l4 1 3 3v2l4 2 10 9 11 9 8 6 4 4 9 6 7 3v2l2 1v2l5 2 7 7 10 7 3 6 5 6 10 8 3 4 3 7 1 3-1 3h-292l-2-1-2-3v-7l-1-4 1-6h-2l-1-16 1-3-2-1-3-36-1-30 1-18 1-13 1-8 2-20 3-14 2-7 6-12 7-6z" fill="#286E90"/>
<path transform="translate(1041,765)" d="m0 0 7 4 4 4v2l4 2 12 9 10 7 2 4 6 3 3 6 3 20 7 76 6 66v8l-11 3-2 20-4 4-16 12-18 13-16 11-9 7-16 11-20 14-17 12-30 22-20 14-18 13-17 12-15 10-5 3h-3l-3-5-11-8-6-5-8-7-9-7-4-4-4-2-2-4-7-2-2-2-7 1-1 1h-5l-2-6v-5l4-6 7-7 3-5h2l2-4 10-7 9-6 4-3h2v-2l5-2 5-1 10-6 12-8 11-9 24-18 14-10 18-13 13-10 19-14 9-6 8-6 4-2 2-4 13-9 3-3 10-6 3-4h2l1-3 5-1 2 1 2-10 4-1 1 2 3 1-5-67-6-70v-6l-4 2h-6v-2l11-8 4-3z" fill="#FEB5A1"/>
<path transform="translate(806,583)" d="m0 0h1l1 6 2 1v2l2 1-3 1 3 4 3 9h2l4 6 8 2 8 4 4 9 6 5 12 4 5 3 10 8 12 9 15 15 7 6 11 9 10 8 11 6 12 11 1 3 4 2 13 10 12 10 8 6v2l5 2 7 7v4h7l6 4 4 4-1 11h-3l-1-4 1-6-6-2-5-3-3 1-4 5-4 8v6l2 2h7l7-3 5-1 2 5 1 22-1 8-2-1-2-13-2-9-2-4-11 2 5 7 2 7v8l-1 6v28l1 11v15l-1 14-1 2-7 1-1 2h-2v2l-8-1-14-6 5 6-2 3-18 4-8 2-11 5h-2l-1 4-5 2-5 5-6 5h-2l-2 4-6 4-12 12h-2l-1 4-8 7-6 4-4 2v2l-8 7-7 8-8 11-9 10-7 8-6 7-5 5-10 9-14 10-13 9-3 3h-2l-2 10 4 16-2 9-6 12-1 3-5 3-3 7v12l1 3 10 2 2 3 1 9h2v3l10 3 18 10 13 5 21 4 4 2v2h2v5l-9 8-6 4 4 4v2h2l2 12v6l-5-1 1 3-10-2-15-8-31-1-13-10-20-14-13-9-12-9-8-7-18-13-10-8-5-2 5-5 11-6 16-8 14-8 10-5 8-6 17-5 3-1 3-6v-7l-4-9-7-11-7-12-1-9 4-9 9-7 13-9 4-5 5-5 6-7 9-3 10-5 10-11 5-9 2-5 11-16 11-13 4-9 12-18 10-14 7-12h2v-4l7-6 1-2 6-3 10-7 1-5-6-8-8-5-28-24-9-7v-2l-3-1-1-4 4-3v-2l6-3 4-1 2-2-1-3 1-2 8 1 5 5 1 3 8 3 2 1 3 1 10-1 5 5 4 2-1 2 7 1 6 4 2 1 5 6 8 7 6 5v2l6 1 2-2 8 1 1-6 4-1 3 1-1-7 5-3 1-6v-12l-1-1-2-16-3-7-3-9-10-13-4-4-6-5-7-8-9-7-12-1-2-1h-6l-7-5-4-7v-2h-2l-8-19-8-10-7-7-8-6-8-5-5-2h-9l-30 12-3 2h-5l-1-1-1 24h-1l-2-55-1-16z" fill="#292D58"/>
<path transform="translate(1100,912)" d="m0 0h1l1 8 9-3 34-1h39l31-2h28l11 2 2 5v7l1 2-4 5-3 3-6 7-21 14h-3v2l-6 2v2l-18 10-16 9-7 4-13 7-14 9-6 3v6l8 11 2 10-2 12-7 10-5 7-6 4-4 2-2 4-6 6h-2l-2 4-5 6-8 6-7 6-8 6-8 11-1 2h-2l-1 5-9 16-3 4h-2l-2 4-6 7-4 4-6 9 16 1v1h24l12-1 22 2 18 2 15 4h8l9 2v2l10 2 13 4 9 6v4l-6 4-14 3-19 2h-18v2l-8 1-46-1-30-1-18-1-9-1h-8l-1 2 14 1 4 1 33 2 16 1 13 1 9 1h53l50-2h66l26 1v1l-10 1h-35l-19 1-44 2-21 2-3 2-1 4 10 3v1h-15l-18-2-20-2-15-3-14-1-21-3h-16l-21-1-20-1h-11l-14 2h-10l-28-4h-16l-18 2-9 3-10 3-13 3-9 3-13-4-10-4-14-6-7-6v-3l-2-1 2-1 4 2-2-9v-9h-2v-2l-4-2v-3l13-10 8-4 5 2v2h2l3 12 2 6 1 5v2l11 3h7l4-5 4-4 11-3v-2l2-1h9l14 3 14 5 12 1 8-3 11-7 8-5 8-7 8-6 11-8 10-10 12-11 20-20 8-11 9-17h2l1-6 5-12 4-5 4-7h2l2-4 7-6 19-10 7-4 7-11 2-6-1-8-4-7 2-5 5-4 11-6 5-2v-2l11-9 10-10v-3h3l1-6-2-6 1-3-17-3h-37l-11-1-4 1-1 7-2 4-3-32z" fill="#224E7B"/>
<path transform="translate(805,562)" d="m0 0 2 3 2 14 4 6v2l4 2 10 10v2l4 1 9 6v2l4 2 15 13 7 5v2l4 2 11 9 13 10 10 8 4 2v3l5 2 9 7 5 8v2l5 2 5 4 11 7 15 10 11 8 15 11 11 7 11 9 2 2h7l3-1 1-6v-24l-1-35 1-2 6 1 6 4 5 2 11 9 9 7 9 8 7 11 1 5-15 11-16 12-6 4-1 4 2 6 6 3 13 11 10 6 11 9 6 8 2-1 2 17v12h-1l-3-20-3-6-6-3-3-5-9-6-15-11v-2l-4-2-4-4-3-1-7 3-10 8h-2v2l10-2 2 16 6 73 3 41v13l-4-1v-2l-4 1v7l-2 4-3-1-4 1-1 2h-2l-2 4-9 6-4 1-1 3-13 9-5 5-6 5-10 7-14 10-16 12-18 13-12 9-14 10-10 8-16 12-11 8-11 6-3 2-8 1v2l-11 7-12 9-6 5-4 6-7 7-2 4 1 10h5l3-2h5l4 3 6 2 2 4 5 3 16 14 8 6 10 8 5 5v2l3 1-7 5h-5l-4-5-10-6-7-4-10-7-5-5-5-4-3-1-5 3-9 1-17-3-2-2-1-4 1-20 2-7 5 4 1-2v-8l2-5 10-19 7-11 13-11 11-7 12-9 19-14 16-12 19-14 11-8 14-10 17-12 20-14 16-13 11-8 17-12 3-1 11 4h3l-4-3-14-4-10-5-7-5-7-3-7-1v2l-5 2h-3v2l-5 1v2l-8 5-5 2-5 1-2 6-5 3v2l-10 6-4 5-10 7-12 11-4 6h-2v2l-2 1-3 5-5 3-4 5-8 6-4 5-8 7-3 1-2 4-9 9-2 3h-2l-2 5-7 7-8 11-9 9-5 2v2l-15 8-6 8-1 17-6 15-5 3h-2l2-6 5-10 1-9-4-16 3-8 13-10 11-7 16-13 5-6h2l2-4 9-9 9-11 8-10 6-8 9-9h2v-2l6-5 5-3 5-5h2l1-4 8-7 8-8 5-3 4-4 7-6 3-3 5-2 1-3 15-7 9-2 15-3 1-3-5-5h3l15 6 5 1v-2h2l1-3h7l1-16v-18l-1-8v-28l1-6v-8l-3-9-3-4-3-2 14-1 3 4 3 13 1 9 1-11-1-18-1-5-7 3-5 2h-7l-3-3v-6l5-9 5-6 6 2 7 4v10h3l1-11-3-1-5-5-3-1h-8l2-1-2-5-8-7-2-1v-2l-4-2-10-8-11-9-9-7-12-12-11-7-9-6-22-18-2-4-4-2-1-3-4-2-5-4v-2l-4-2-8-6-10-8-5-3-12-4-7-6-3-7v-2l-12-4-5-2-3-4v-2h-2l-4-9-3-5 2-1v-2l-3-1-2 3z" fill="#4C3E71"/>
<path transform="translate(785,1198)" d="m0 0h30l8 5v2l5 1 28 18 6 2v2l4 1 8 3 4 4 8 7 34 34 7 6v2h2v2l4 2 10 12 4 6v2h2l5 9 10 16 1 10 2 3 1 7v3 15l-5 1-5-2-1 3h-8l-7 5v-2l-5-1-3-3-8-4-1 2-6-5-11 1-7-3-4-4-9-4-12-3-12-8-5-4-6-3-7-4-4-6-6-3-4-3h-18v2l-4 1-10-1-5-3v3l-7-2-8-7-4-4-8-16-6-9v-2h-2l-6-11-6-9-3-11v-8l4-13 3-5h2l2-5 13-13z" fill="#276D8F"/>
<path transform="translate(992,1378)" d="m0 0 8 5v2h2l1 2 5 1-2-8 6 1 11 4v-3l8 1 15 3 5 4 6 1 9 4 8 2 7 5 7 9 4 10 4 22 2 21 1 15-1 15-1 23-2 14-1 11-1 2v7l-1 4v3h-2l-1 13-4 7v8l-3 1-2 13h-92l-1-7 1-2h-2l-5-8-1-8 2-6-2-6h2l1-3-1-9 2-10 3-20 1-5h2l-1-3 3-6 2-7-3-1v-9l2-4h3v-13h2l-1-4h2l-2-12h2v-6l3-9 1-2-4 3-3-1v-8l-1-6 2-9v-3l-1-2 2-2 4 1-1-5 2-1-6-4-5-6z" fill="#276D8F"/>
<path transform="translate(801,502)" d="m0 0h11l6 3 3 2v2l5 2 5 4v2l4 1 5 4 1 2 4 2v2l4 1 2 4 4 1 5 4v2l5 2 4 3v2l5 2v2l5 2 4 3v2l5 2v2l5 2 5 5 2 1v2h2v2l8 4 9 9 5 3 14 12 11 8 7 6 13 10 5 4v2l4 1 1 3 4 1 9 7 1 2 5 3 12 10 10 8 13 11 5 5-5-2-5-3-4-1 1 48v13l-2 6-3 2h-7l-10-9-18-12-11-8-14-10-12-8-14-9-5-4-4-4-4-7-13-9-1-3-7-4-11-9-14-11-9-7v-2l-5-2-12-11-9-7v-2l-5-2-5-4-3-1v-2l-3-1-5-5-4-5-3-3-4-6-2-14-1 19h-1z" fill="#276D8F"/>
<path transform="translate(713,563)" d="m0 0 6 1 5 3 4 1h9l7 3 3 4 1 25 4 20 1 10-8 12 2 6 2 3-1 7-3 5-14 11-11 9-12 8 1 11-3 6-11 5-18 4h-11l-7-6-3-3-8 3-12 5-7 5-9 5-5 5-12 6h-2l-2-4v-9l2-12-1-10-7-14-1-8 2-19 3-9h2l2-4 4-4-1-2 5-2v-2l10-7 5-5h3v-2l9-6 3-3 5-4h2v-2l5-3 11-9 3 1v2l7 1h9l17-6 1-3-1-1-1-10 2-5 8-9z" fill="#276D8F"/>
<path transform="translate(1253,10)" d="m0 0 11 3v7h-2v3l6-2 5 1v4l-2 6v4l5 2-2 5-4 1-3-1-1-2-5 1 2 4 5 1h3l3 5h7l-1-3v-11h10l3-3 10 1h2l2-8v-5h23v-2l4 1 2 1-1 3-5 1 2 5 2 1v2l10 1h19l3-3v-7l3-3 8 2 1-2 3 1-4 6v4h7l6 5 7 2v-2h9l10-2 1-3 4 2v2l7 2 4 3h8l3 4 6 1-1-7-3-1-1-6 4-1v5h7v2l4-1 1-3h2v2l2 1-1 1v6l4-1 6 2 7 4 2 2h2l2 5 5 1 2-3 5 1 3 2 4-1 7-3v2l4 1 3-3 10 1 2-1 5 3 1 3h11l1 3 3 1 2 3 5-1 9-3 1-3 2 1v3l6 1 4 6 7 1 1 3-1 3-9 2h-2l-3-5-4-1-5 4-1 4 2 2 9 1 2 4 9 1 2-1 4 2 1 7-1 1v8l1 7-2 4-4 2-10-2-2-4-3-1-1-1-2 3-5-1-3-9h-3l-1 7-7-1v-8l-4-1-2 6-3 1-4-2-1 5-15-2h-3l-3-1v-5h-5l-5 4-6-1v-2l5-1 1-6-6-2-1 4-5 1-3-3h-5l-3 1-4-3-5 1-2-2 1-2 15-1 4 1h11l12 2 1-3h5v2l6 1 4-4-1-5h-3l-4 2-3-1v-2l-7-1-2 3-5-1v-2h-7l-1 3-4-1-10-5-3-4v-2l4-1 5 4 5 1v-3l3-1 6 2v2l7-1 6-1 7 3h4v-2l5 1 7 1 7-4v-5l-7 1-1 3-5-1-5-3h-8l-2-2-4 1-6 1-3-2-8-1-1-1h-7l-5 1-1-3-11 1v-2l-4-1-5 3h-4l3 8 2 3-2 4-4 1-2-2-4-1-2 4-2 5 3 4v2l-7 1-1 2-5-1v-2h-10-3l-2-2v-14l-4 2-1 8 3 1-5 3-2 2-7-1 2-1v-7l-5 1-4 4-9-2-4 2h-3-5v-2h-2v2h-3v-3l-7 1-9-2-2-3v-2l-7 2-1 2h-3l1-5-2-2h-6l-1 2-6-1-7-1-1-2-6 1h-15l4-3 2-7v-9l2-1 6 2h3l-1-5-8-1-1-3-6-1-8 5 1 3 10 4-1 2-8 1-4-4h-7l-1 4-3 3-1 3-10-2-3 2 1-4 2-1-2-6-5-2v3h-2l1 6-13 1-1-1v-7h7l3-1v-11l-7-1-2 4-5-1-4-1h-2v2l-5 1-3-1-7 1v-2l-7-1-3 1-1 3h-2v-5l-5-1-5-2h-3l1-2h2v-3l-4-2-7-2-7-3-2 2h-5l-2-4h-12l-5-4-3 4h-2-18-4l-14-3-2 1 1-4 7-1 18-1h15l1-2 10 4 5-1h15l7-1h31l10-2h19l5 1-2-6-4-4z" fill="#021B34"/>
<path transform="translate(754,629)" d="m0 0h11l6 3 1 8-4 6-7 7-17 13-16 13-15 11-3 2 1 4 11 10 5 4 7 8v3l-5 4h-2l-1 3-14 10-10 8h-2l-1 31-1 12-7 14-4 6-4 4h-2v2l-7 4h-2l-2 4-5 4-7 4-9 6-5 5-6 5-8 1-2 1-2-2-5 1-4 1-3-1-2-6-1-10-2-1-8 7-4 4-7 1-2-10v-5h-2l-2-5-1-18 1-9 4-1 2-3-3 3-3-1-1-4-3-1-2-4 4-4 1-4-1-6 8-5 7-4 5 5 3 2v7l-7 11 4-1 3-9 1-11 2-2h14l14-9 14-6 4-1-9 2-11 4-9 6-5 2h-8l-9-5v-4h-2l-2-5v-6l4-6 12-6 3-1 2-4 20-12 12-5 5-1 6 7 3 2h11l18-4 8-4h3l2-6-1-11 18-13 17-14 3-1 2-5 1-7-4-7 2-5 6-9z" fill="#A74576"/>
<path transform="translate(567,1479)" d="m0 0h18l9 3 2 4 5 2 8 7 10 8 8 7 5 4 15 15v2l4 2 14 14 6 7v2l4 2 11 12 10 13 5 5 6 8 1 4h-155l-2-7-3-17-3-9v-11l-1-3-1-24v-14l2-5v-7l3-7 8-7v-3l5-5z" fill="#7E7291"/>
<path transform="translate(786,502)" d="m0 0h15l1 1 3 81 1 8 1 30 2 39 1 32 1 17 1 33 4 9 9 16 1 4-29 1-3 1-5 5-14 11-3 1-5 5h-3v2l-15 11-5 2-1 3-5 3h-2l-1 3-5 3-18 14h-3l-1 3-6 4h-2v2l-10 7h-2v2l-4 1v2l-4 1v2l-4 1-1 3-4 3h-3l-1 3h-3l-1 3-4 3h-3l-1 3-8 6-3 1-3 3h-2l-1 3h-3l-1 3-3 1-3 3h-2v2l-4 1v2l-4 1v2l-4 1v2h-3v2l-11 8-19 14-13 10-12 9-21 16-13 9-2 1-1 3v18l-3-1-5-9-7-11 1-9 3 4v1h8l1-4 4 1h4l24-18 7-6 10-8 17-12 16-12 6-7 1-3v-16l1-1v-5l-4 2-2-6-2-13-2-6-2-1-2-5v-7l2-4 6-5 8-1 2 8-2 6-1 8-1 3 2 5 5-1 8-4 1-2h3v-2l7-1 4-2h3v2h2v2h-2l1 4h-2l-1 3h-2v2h-2l-1 3-5 2-1 3v10l1 3 12-6 11-8 15-11 11-8 3-3h2v-3h2v-2l14-7 3-5 1-11 5-5 8-6h2v-2l20-14 16-12h2v-2l12-7 3-3 4-1 1 9 10-6 10-9 4-6 2-6-6-1-4 3-10 4-11 6-11 3-15 8h-4l-1-5v-14l-1-1v-37l8-6h2v-2l6-4 8-3 14 1 2 2 2 15 1 2 7-2 10-3 4-2 4 1v4h2l-1-11-3-86-1-39-3-54-1-21-1-7-8 1-5 5-4 5-4 9-9 5-6 1-12 3v2l23 7 4 2v2l3 1-1 3h3v2h3l2 3-1 6h2l1 11-2 3-2 7-10 21-3 9-1 11 2 8h-2v-3l-6-2h-12l-6-30-1-25-5-5-5-1h-8l-7-3-4-2-5 1-8 6-5 6-1 5 1 9 1 2-2 3-17 6h-9l-7-2-1-4 14-11 12-9 11-9 11-8 16-13 17-13 16-13 19-14z" fill="#8B8096"/>
<path transform="translate(556,777)" d="m0 0 7 2 4 10v14l2 21 1 17-1 2 2 1 1 10 2 9v15l-3 1 1 3-1 11-2 4-8 7-11 8-1 3-1 40-2 4-13 9-9 7-4-2-3-1-1 4-8 1-2-2-1 1h-1v-50l1-70 1-33 1-15 3-9 5-4 12-7 10-4 7-3z" fill="#A74576"/>
<path transform="translate(1041,765)" d="m0 0 7 4 4 4v2l4 2 12 9 10 7 2 4 6 3 3 6 3 20 7 76 6 66v8l-11 2-5-2-10-8-11-9-5-5-15-12-10-7-4-5v-10l3-3h2l1 2 3 1-5-67-6-70v-6l-4 2h-6v-2l11-8 4-3z" fill="#94ABCB"/>
<path transform="translate(1100,912)" d="m0 0h1l1 8 9-3 34-1h39l31-2h28l11 2 2 5v7l1 2-4 5-3 3-6 7-21 14h-3v2l-6 2v2l-18 10-16 9-7 4-13 7-14 9-6 3v6l8 11 2 10-2 12-7 10-5 7-6 4-4 2-2 4-6 6h-2l-2 4-5 6-8 6-7 6-8 6-8 11-1 2h-2l-1 4-1-3-3 1-1-3-2-1v-2l-4 1-2-2 1-2-3-1 2-4 10-19h2l1-6 5-12 4-5 4-7h2l2-4 7-6 19-10 7-4 7-11 2-6-1-8-4-7 2-5 5-4 11-6 5-2v-2l11-9 10-10v-3h3l1-6-2-6 1-3-17-3h-37l-11-1-4 1-1 7-2 4-3-32z" fill="#213D6B"/>
<path transform="translate(604,643)" d="m0 0 2 1-7 8h-2l-2 9-2 23 5 13 3 5 1 10-2 12v9l2 5-2 4v6l1 5h2l1 4 8 4h8l8-4 9-5 11-4 8-1-2 2-16 6-10 6-6 4h-14l-1 1-1 11-4 9-5 3-2-1 4-4 5-8 1-7-4-2-4-4-9 5-5 3 1 7-3 5-2 3 5 6 1 2 4-2h3l-5 5-6-2-4-2h-7l-4-4-4-10-6-1-12 4-10 4-16 8-8 6-2 8-1 15h-1v-48l1-44 10-18 9-10 20-15 10-8 3-1v-2l5-3h2v-2l17-13 10-8h2v-2l5-2v-2z" fill="#7D7190"/>
<path transform="translate(1007,913)" d="m0 0 10 3 8 3 1 3h2l3 5-5 2-1 2h-2l-2 4-9 6-4 1-1 3-13 9-5 5-6 5-10 7-14 10-16 12-18 13-12 9-14 10-10 8-16 12-11 8-11 6-3 2-8 1v2l-11 7-12 9-6 5-4 6-7 7-2 4 1 10h5l3-2h5l4 3 6 2 2 4 5 3 16 14 8 6 10 8 5 5v2l3 1-7 5h-5l-4-5-10-6-7-4-10-7-5-5-5-4-3-1-5 3-9 1-17-3-2-2-1-4 1-20 2-7 5 4 1-2v-8l2-5 10-19 7-11 13-11 11-7 12-9 19-14 16-12 19-14 11-8 14-10 17-12 20-14 16-13 11-8 17-12z" fill="#A74576"/>
<path transform="translate(973,896)" d="m0 0h7l8 4 9 6 16 6 6 2 4 4-6-1-10-3-11 7-8 6-17 13-14 11-16 11-14 10-17 12-16 12-14 10-17 13-15 11-14 10-10 7-15 12-8 13-8 16-2 5v9l-2 2-5-4-2 19v7l2 5 17 3 9-1 6-3 6 4 6 5 4 4 7 5 2 5h2l1 9-20-3-13-5-11-6-9-5-8-3v-3h-2l-3-11-4-1-6-2-2-5v-10l4-8 11-6 6-15 1-17 7-9 13-7h2v-2l8-6 7-7 8-11 14-16 13-13 9-8 8-8h2l1-3h2l2-4 5-3 2-4h2v-2l4-4 7-8 12-10 5-3 5-6 7-4 5-5 4-6 9-4 4-2 3-2h2v-2l5-1v-2l5-2h3z" fill="#6B295A"/>
<path transform="translate(899,573)" d="m0 0 5 1 6 4 9 9 5 3 14 12 11 8 7 6 13 10 5 4v2l4 1 1 3 4 1 9 7 1 2 5 3 12 10 5 4 2 3v3h-2l1 8 1 1-1 7-1 2h-2l-2 10-2-1-3 2-7 1-2 5h-3l-3 2-2 4h-8l-11-4-6-5v-2l-4-2-1-4-4-2-1-5-2-1 2-6-1-6 3-2-3-5-7-5h-4l-5-3-3 6h-2l-3 6-4-2-11-11-1-2-5-3-4-5-4-10-5-8-1-5h-2l-5-10 1-4 7 8 9 1 6-1 5-1v-4l-9 2-9-3-5-6-2-6v-14l3-7 5-5z" fill="#347E9A"/>
<path transform="translate(793,507)" d="m0 0h5l1 1 1 7 3 60 1 15 2 67v34l-3 5-2 7-1 3h-3l1 3-4 3h-5l-1-3 3-5 5-4h2v-9l1-4-1-2h-3l-3 3-4 1v2l-3 3h-2v3h-2v2l-12 2-5-5-2 4-15 15-8 6-4-1v-2l-4-2-7-8-11-9-4-4 1-4 14-10 16-13 17-13 12-11 3-9-2-11 3-16 10-19 2-4 1-8 2-2v-10h-2v-6l-1-3h-3v-2h-3v-3l-3-3-16-5-10-3-1-4 13-3 9-2 5-3 5-10 7-9z" fill="#A74576"/>
<path transform="translate(1100,976)" d="m0 0 5 1 2 5v14l-4 11-9 11-2 3h-2l-2 4-12 15-5 4-4 4-11 8-7 6h-2v2l-7 6h-2v2h-2v2l-20 16-9 5-11 8-9 7-10 9-8 5-2 3h-2v2l-6 3-6 7-8 6-9 7-5 3-4 4-10 5h-10l-13-2h-13l-4-4v-2l-4-1 18-12 18-13 17-12 20-14 16-12 14-10 18-13 19-13 23-16 9-7 20-14 24-18h2l2-22z" fill="#A74576"/>
<path transform="translate(785,1198)" d="m0 0h30l8 5v2h3l5 5 11 9v2h2v2l4 2 8 7v2h2v3l3 1 2 8-1 5h-2l-1 4-9 7-14 8-9 5-4 4-6 3-9 6-5 2v1l-7-1-8-6-4-2v-2h-2v-2l-3-1-4-5-4-10-7-17-1-6v-10l2-10 8-11 5-5z" fill="#357E9A"/>
<path transform="translate(1046,1160)" d="m0 0v3l-4 6 16 1v1h24l12-1 22 2 18 2 15 4h8l9 2v2l10 2 13 4 9 6v4l-6 4-14 3-19 2h-18v2l-8 1-46-1-30-1-18-1-9-1h-8-3l-12-3-4-5 2-5 12-13 18-13z" fill="#0B5A87"/>
<path transform="translate(805,562)" d="m0 0 2 3 2 14 4 6v2l4 2 10 10v2l4 1 9 6v2l4 2 15 13 7 5v2l4 2 11 9 13 10 10 8 4 2v3l5 2 9 7 5 8v2l5 2 5 4 11 7 15 10 11 8 15 11 11 7 11 9 2 2h7l3-1 1-6v-24l-1-35 1-2 6 1 6 4 5 2 11 9 9 7 9 8 7 12-8 6-19 14-11 8-6 1-5-1-1 1-1 8h-5l-1 5-3 4-4-5-5-2h-8l2-1-2-5-8-7-2-1v-2l-4-2-10-8-11-9-9-7-12-12-11-7-9-6-22-18-2-4-4-2-1-3-4-2-5-4v-2l-4-2-8-6-10-8-5-3-12-4-7-6-3-7v-2l-12-4-5-2-3-4v-2h-2l-4-9-3-5 2-1v-2l-3-1-2 3z" fill="#4B3E71"/>
<path transform="translate(567,791)" d="m0 0 4 1 9 1 4 3v16l1 11 1 5h2l3 14 7-1-1 4-2 1-1 3v7l1 5 3 1 3 10 2 15 4-3 1 1v5l-1 1v16l-4 7-9 8-18 13-15 11-11 9-3 2 1-42 2-4 11-8 6-6h2l1-7 1-11 2-1v-15l-3-13v-6l-1-4-1-16-2-23z" fill="#A65D82"/>
<path transform="translate(809,714)" d="m0 0h1l2 29 4 9 9 16 1 4-29 1-3 1-5 5-14 11-3 1-5 5h-3v2l-15 11-5 2-1 3-5 3h-2l-1 3-5 3-18 14h-3l-1 3-6 4h-2v2l-10 7h-2v2l-4 1v2l-4 1v2l-4 1-1 3-4 3h-3l-1 3h-3l-1 3-4 3h-3l-1 3-8 6-3 1-3 3h-2l-1 3h-3l-1 3-3 1-3 3h-2v2l-4 1v2l-4 1v2l-4 1v2h-3v2l-11 8-19 14-13 10-12 9-21 16-13 9-2 1-1 3v18l-3-1-5-9-7-11 1-9 3 4v1h8l1-4 4 1h4l24-18 7-6 10-8 17-12 16-12 6-7 1-3v-16l1-1v-5l-4 2-2-6-2-13-2-6-2-1-2-5v-7l2-4 6-5 8-1 2 8-2 6-1 8-1 3 2 5 5-1 8-4 1-2h3v-2l7-1 4-2h3v2h2v2h-2l1 4h-2l-1 3h-2v2h-2l-1 3-5 2-1 3v10l1 3 12-6 11-8 15-11 11-8 3-3h2v-3h2v-2l14-7 3-5 1-11 5-5 8-6h2v-2l20-14 16-12h2v-2l12-7 3-3 4-1 1 9 10-6 10-9 8-13 4-10z" fill="#FBB4A0"/>
<path transform="translate(754,629)" d="m0 0h11l6 3 1 8-4 6-7 7-17 13-16 13-15 11-3 2 1 4 11 10 5 4 7 8v3l-9 6-5-2h-10l-8 2-1 3-11 3-17 6-7 5-25 7-12 6-7 4-2 1h-8l-9-5v-4h-2l-2-5v-6l4-6 12-6 3-1 2-4 20-12 12-5 5-1 6 7 3 2h11l18-4 8-4h3l2-6-1-11 18-13 17-14 3-1 2-5 1-7-4-7 2-5 6-9z" fill="#4C3D70"/>
<path transform="translate(520,1435)" d="m0 0 8 2 1 4 3 2v3l4 1 1 5 2 1-1 2 7 2-2 3 4 4 2 5 3 2 1 5-1 1 6 2v3l-3 2 3 3-5 5-6 7-1 7-1 6-1 9v16l1 16 1 3v11l1 10-3-1-2-8-1 2 1 7-2-1-4-9 2 11h-2l-3-10-2-2-2 1-1-2-2 3-3-7-1-5h-2l-2-13h-2l-1-5-1-2 1-2-2-1 1-1h-1v-10l-1-5v-1l-1-13v-3l-1-4v-8l-1-3h2v-4l-2-1 1-1v-17l2-14 3-9z" fill="#347E9A"/>
<path transform="translate(1075,720)" d="m0 0h3l-1 5-17 12-11 9-8 5-1 4 2 6 6 3 13 11 10 6 11 9 6 8 2-1 2 17v12h-1l-3-20-3-6-6-3-3-5-9-6-15-11v-2l-4-2-4-4-3-1-7 3-10 8h-2v2l10-2 2 16 6 73 3 41v13l-4-1v-2l-4 1v7l-2 4-5-5v-2h-2l-3-4 1-7 3-4-2-9-2-28-2-24-3-9-1-27-1-7-1-18-1-5-7 3-5 2h-7l-3-3v-6l5-9 5-6 6 2 7 4v10h3v-13l2-3 1-5 5 1v-8l2-2 7 1 7-3 16-12 11-8z" fill="#7E7190"/>
<path transform="translate(738,634)" d="m0 0h6l1 3h2l-2 7 4 7-1 7-3 5-14 11-11 9-12 8 1 11-3 6-11 5-18 4h-11l-7-6-3-3-8 3-12 5-3 2-3-5 2-5 5-6h2v-2h2v-2l16-8 3-3 8-4 9-6 16-10 6-4 7-4 18-11 7-6 5-7z" fill="#234E7B"/>
<path transform="translate(808,661)" d="m0 0h1l1 32 1 17v20l-2 3-1 13-5 12-3 3 1-4-6-1-4 3-10 4-11 6-11 3-15 8h-4l-1-5v-14l-1-1v-37l8-6h2v-2l6-4 8-3 14 1 2 2 2 15 1 2 7-2 10-3 4-2 4 1v4h2l-1-11v-15z" fill="#7E7291"/>
<path transform="translate(40,1139)" d="m0 0h6v2l4 1 5-1 5 1 3-2 5 1h3v2l4 2v2l3 1v3l3-1 5 3 5 4 3 1v2l4 2v3l-4 2 5 9-3 3 1 2-2 5-2 1v-3l-2 2-2 1-1 4 3 1-9 5h-2l-1-7-1 2-4-1v2l-4 1-1-2-2 2h-5l1 4h-3l-2 5-2-1v-2h-2l-3-3-1-3-5 2-4-7-7-2h-4v-2l-3-1 2-4 3-2-4-1-2-2v-5l-3-1 1-5-1-7 3-3 2-4 8-1 1-4-1-2z" fill="#0B5A87"/>
<path transform="translate(520,845)" d="m0 0 8 4 1 9v40l8-4h4l5-7 6-5 4-3 2 3-2 6-8 6-6 2-8 11-7 9v5l4 6 3-2 1-5 2-1v12l-2 4-1 5-7 11-2 11-3 4 1 4 5 1-4 4-4-2-3-1-1 4-8 1-2-2-1 1h-1v-50l1-70 2-8 4 1-2 13 1 19v9h2l2-4v-10l2-3v-26z" fill="#A65C81"/>
<path transform="translate(793,507)" d="m0 0h5l1 1 1 7 3 60 1 15v34h-1l-1-25-7 4-6 4-7 8h-2v2l-6 3-1 2h-2l1-11 9-19 4-7 1-8 2-2v-10h-2v-6l-1-3h-3v-2h-3v-3l-3-3-16-5-10-3-1-4 13-3 9-2 5-3 5-10 7-9z" fill="#A55D82"/>
<path transform="translate(801,502)" d="m0 0h11l6 3 3 2v2l5 2 5 4-1 2-2-1-3 1-2 14-2 2v9l3 5-1 8 1 6 3 17 3 4 2 9h2l7 9 6 7 10 10 9 5v2l4 1 6 7v2l4 2 6 7 10 8v2l4 2 6 7-5-2-9-8-11-8-13-11-2-1v-2l-5-2-12-11-9-7v-2l-5-2-5-4-3-1v-2l-3-1-5-5-4-5-3-3-4-6-2-14-1 19h-1z" fill="#0D5B88"/>
<path transform="translate(803,1170)" d="m0 0 18 1 6 3 11 12 2 1v2h2l2 12v6l-5-1 1 3-10-2-15-8-31-1-13-10-20-14 2-1 8 4 13-2 16-4z" fill="#02335C"/>
<path transform="translate(1058,1458)" d="m0 0h10l4 5 5 10v10l1 3-2 5 1 6h-3l1 5v11l-2 4-1 7-2 5h-2v7l-4 3h-2l-1 3-5-2h-5l-1-5 1-5h-2v-9l-1-13v-22l2-11 3-5 5-5h4l-1-2-7 1 1-4z" fill="#347E9A"/>
<path transform="translate(1078,722)" d="m0 0 3 4 3 8 2 27 2 17 1 10v11l-5-5-5-6-14-10-6-4-12-10-6-3-2-6 1-4 5-4 9-6 10-8 13-9z" fill="#4B3D70"/>
<path transform="translate(857,1168)" d="m0 0 5 2v2h2l3 12 2 6 1 5v2l11 3h7l4-5 12 1 2 1 9 1 9 2 1 1 19 3 12 4-1 2-12 2h-13l-7-2-9 1v-1l-14 1-21-2h-9l-11 1-16-2v-7l-1-3v-9h-2v-2l-4-2v-3l13-10z" fill="#213D6B"/>
<path transform="translate(1105,974)" d="m0 0 6 1 2 3 1 10v15l-2 9-4 8-14 10-5 5h-2l-2 4-4 6-5 4-4 5-11 9-8 6-7 6-5 3-3 3-6 4-5 5-15 10-7 7-5 3-7 6h-2l-2 4-15 9-10 7-8 4-7 4-3-1 7-5 3-4h2l1-3 6-2v-2l7-6 8-6 10-9 11-8 9-6 9-5 8-7 7-6h2v-2h2v-2l7-6h2v-2l10-8 11-8h2l2-4 5-4 10-13 3-4h2l2-4 8-10 4-11v-14l-1-5-2-1h2z" fill="#6B295A"/>
<path transform="translate(784,1099)" d="m0 0 5 4h4 4l2 9h5l3-2h5l4 3 6 2 2 4 5 3 16 14 8 6 10 8 5 5v2l3 1-7 5h-5l-4-5-10-6-7-4-10-7-5-5-5-4-3-1-5 3-9 1-17-3-2-2-1-4 1-20z" fill="#8C8298"/>
<path transform="translate(761,708)" d="m0 0h8l7 1 2 2 2 15v8l-10 8-3 2-6-1-2 4-18 13h-3v-37l8-6h2v-2l6-4z" fill="#8C8197"/>
<path transform="translate(713,563)" d="m0 0 6 1 5 3 4 1h9l7 3 3 4 1 25 2 9-3 10h-2l-1 4-4-2-4-6-2-10 1-10-2-11-5-5-3-1h-8l-8 3-2 3-1 9-5 5-28 11-4 1h-8l-4-1-2-4 5-5h3v-2h2v2l7 1h9l17-6 1-3-1-1-1-10 2-5 8-9z" fill="#347E9A"/>
<path transform="translate(805,562)" d="m0 0 2 3 2 14 4 6v2l4 2 10 10v2l4 1 9 6v2l4 2 15 13 7 5v2l4 2 11 9 13 10 10 8 4 2v2l-5-2-14-7-4-1-1 2-20-16-5-3-12-4-7-6-3-7v-2l-12-4-5-2-3-4v-2h-2l-4-9-3-5 2-1v-2l-3-1-2 3z" fill="#224E7B"/>
<path transform="translate(590,881)" d="m0 0h3l6 3 3 5 5 14-1 7-9 10-14 10-18 13v-3l3-9 4-19 3-10 7-11 7-6z" fill="#8C8197"/>
<path transform="translate(899,573)" d="m0 0 5 1 6 4 9 9 5 3 14 12 7 5 2 4-6-2-14-6-4 1-4 8-7 2-6 1-9-3-5-6-2-6v-14l3-7 5-5z" fill="#8B8096"/>
<path transform="translate(1030,777)" d="m0 0h2l2 16 6 73 3 41v13l-4-1-2-5-2-16-4-17-2-19-2-20-1-18v-41l2-5z" fill="#347E9A"/>
<path transform="translate(795,684)" d="m0 0 4 1 1 4-1 6-1 5-8 6-1 5h5l3-3v-2l4-4 2-9 2-3 2-4 1 40h-2l-1-4-5 1-7 3-11 2-2 2-3-19-1-1-14-1-9 4-5 2v2l-6 4-2-1 16-15 7-7 1-2 4 2 1 3 6-2h6v-2h2v-3h2l1-3h2v-2l6-2z" fill="#A65D82"/>
<path transform="translate(786,502)" d="m0 0h15l1 1 3 81 1 8 1 30 1 16v62h-1l-1-14-2-57-1-39-3-54-1-21-1-7-8 1-5 5-4 5-4 9-9 5-6 1-16 4-6 1 2-4 17-13 18-14z" fill="#F8B19F"/>
<path transform="translate(1075,720)" d="m0 0h3l-1 5-17 12-11 9-8 5-1 4 2 6 6 3 13 11 10 6 11 9 6 8 2-1 2 17v12h-1l-3-20-3-6-6-3-3-5-9-6-15-11v-2l-4-2-4-4-3-1-7 3-5 4-6 1-1-2v-6l3-7 1-10 2-2 7 1 7-3 16-12 11-8z" fill="#276D8F"/>
<path transform="translate(717,561)" d="m0 0 6 2 2 2h21l4 4 2 10 2 16 5 10 1 3 5 1 8 1-2 14 2 11h-2v-3l-6-2h-12l-6-30-1-25-5-5-5-1h-8l-14-6z" fill="#7E7291"/>
<path transform="translate(782,1117)" d="m0 0h13l10 2 2 4-1 4-4 3 9-2 1-3-1-8 5 1v5l4 2 11 8v2l4 2 9 7 15 10 4 5v2l3 1-7 1-4-5-10-6-7-4-10-7-5-5-5-4-3-1-5 3-9 1-17-3-2-2-1-4v-7z" fill="#7D7090"/>
<path transform="translate(938,812)" d="m0 0 4 2 12 12 5-1 4-1 5 1 1-6 4-1 6 1 6-7 1 3-5 13-2 2 7 1-2 4-5-1-3-1v5l8-1 3 2-8 6-1 4-10-1-3-2 4-1v-5l-7 2v3l-6-1-3-3 2-2-6-7v-3l-6-4-4-6-2-2z" fill="#213C6A"/>
<path transform="translate(738,634)" d="m0 0h6l1 3 2 1-9 6-10 6-13 11-7 2v2l-21 11-28 21-18 14-5 5-3 2-3-5 2-5 5-6h2v-2h2v-2l16-8 3-3 8-4 9-6 16-10 6-4 7-4 18-11 7-6 5-7z" fill="#0C5A87"/>
<path transform="translate(545,694)" d="m0 0 2 4-6 10-8 16-5 5-5 1-1 3-5 2-5 3-3-1-1-2v-6l9-16 9-10 11-8z" fill="#A45D82"/>
<path transform="translate(754,629)" d="m0 0h11l6 3 1 8-4 6-7 7-17 13-16 13-15 11v-3l17-13 13-11h2l2-5 1-7-4-7 2-5 6-9z" fill="#4D3D70"/>
<path transform="translate(857,1168)" d="m0 0 5 2v2h2l3 12 2 6 1 4-19-1h-7l-2-1v-3h-2v-2l-4-2v-3l13-10z" fill="#224D7A"/>
<path transform="translate(806,583)" d="m0 0h1l1 6 2 1v2l2 1-3 1 3 4 3 9h2l3 5 2 10-2 10-4 6-2 1-2-1v2l-4 1-1-3-1-16z" fill="#05335C"/>
<path transform="translate(962,635)" d="m0 0h10l4 4 1 3v7l-5 6-2 2h-16l-3-5-4-4 1-6 2 1 3-7z" fill="#286E90"/>
<path transform="translate(596,762)" d="m0 0 4 2 5 5v7l-7 11-10 7h-4l-1-4-3-1-2-4 4-4 1-4-1-6 8-5z" fill="#4C3E71"/>
<path transform="translate(1008,758)" d="m0 0 6 3 5 5-1 11h-3l-1-4 1-6-6-2-5-3-3 1-4 5-4 8v6l2 2h7l7-3 5-1 2 5 1 22-1 8-2-1-2-13-2-9-2-4-6 1h-10l-6-7v-8l3-5h2l2-4 6-6z" fill="#6B295A"/>
<path transform="translate(592,922)" d="m0 0m-1 1m-1 1m-1 1m-2 1 4 2-11 8-19 14-18 14-18 13-5 3-1 3v18l-3-1-5-9-7-11 1-9 3 4v1h8l1-4 4 1h4l24-18 7-6 10-8 17-12z" fill="#E2ADA5"/>
<path transform="translate(812,592)" d="m0 0 5 5 9 8 9 6 9 8 9 7 8 9-1 3-11-3-6-4-5-6-1-6-12-4-5-2-3-4v-2h-2l-4-9-3-5z" fill="#213D6B"/>
<path transform="translate(897,571)" d="m0 0 5 1-5 4h-2l-2 4-2 6v14l4 9 6 4 8 1 6-1v4l-7 3h-9l-5-2-6-7-2-1-3-6v-19l3-9 9-4z" fill="#286E90"/>
<path transform="translate(811,743)" d="m0 0 2 3 6 12 7 11v3l-31 1 7-11 6-12z" fill="#7E7592"/>
<path transform="translate(1557,87)" d="m0 0h5l4 6 7-1 5 4v3l7-1 2 1 2 8-2 3h-8l-6-5-8-1-3-2-9-2-2-2 1-4 4-3z" fill="#02335C"/>
<path transform="translate(786,502)" d="m0 0h15l1 1 3 81 1 8 1 30 1 16v62h-1l-1-14-2-57-1-39-3-54v-32l-14-1z" fill="#92A5C4"/>
<path transform="translate(1e3 761)" d="m0 0 6 2 7 4v10l3 1-3 6-1-4-7 3-5 2h-7l-3-3v-6l5-9z" fill="#A74676"/>
<path transform="translate(899,573)" d="m0 0 1 4-4 11v9l2 9 5 1h8l9-6 7-1 10 5-2 1-8-3-4 1-4 8-7 2-6 1-9-3-5-6-2-6v-14l3-7 5-5z" fill="#7E7291"/>
<path transform="translate(217,31)" d="m0 0 7 1v4 3l11-1 6 2 6 4 4 2 1 2 4 2-1 5-8-1-3-2v-2l-7 1-4-4-5 1v-3l-4-1-2 4-6-2-1-4 1-4h-2l-1 3-1-3 3-5h2z" fill="#021B34"/>
<path transform="translate(354,65)" d="m0 0 4 3-1 3 2 2 8-2v2l3-1 1 1v-3l10-1v-4l7 2 2 1 1-2 2 5-2 2 1 5v3l2 1-7 1-4-2-3-1-10-1-7-4v2l-5 1-5-4-3 1-6-3 2-1v-2l6-1v-2z" fill="#021C36"/>
<path transform="translate(700,573)" d="m0 0v3l-2 6 1 9 1 2-2 3-17 6h-9l-7-2-1-4 6-5 2 1-2 2 9-1 7-4 4-7h2v-2z" fill="#7D7291"/>
<path transform="translate(1039,757)" d="m0 0 5 5 7 4 10 9 10 6 11 9 6 8 2-1 2 17v12h-1l-3-20-3-6-6-3-3-5-9-6-15-11v-2l-4-2-4-4-7-1 1-7z" fill="#747190"/>
<path transform="translate(808,661)" d="m0 0h1l1 32 1 17v20l-2 3-1 13-5 12-3 3 1-4-5-1v-3l4-5 2-11 1-16 3 1v4h2l-1-11v-15z" fill="#8D8AA2"/>
<path transform="translate(782,1117)" d="m0 0h13l10 2 2 4-1 4-7 4h-3v2h-9l-5-3-1-4v-7z" fill="#357F9B"/>
<path transform="translate(996,1221)" d="m0 0h10l11 3 8 1 8 2v2l-6 2-7 1h-17l-12-3-3-3 4-3z" fill="#0C5B88"/>
<path transform="translate(1382,39)" d="m0 0 6 5 9 1 6 5 5 3 1 1-1 7-6-1-2-4-6-1-7 1-3-4h-7l-3-2 2-4h3l2-5z" fill="#02335C"/>
<path transform="translate(799,1221)" d="m0 0h6l5 5v7l-4 8-3 2-7-1-3-3-1-7 1-6 4-4z" fill="#95ACCC"/>
<path transform="translate(809,1214)" d="m0 0 6 1 2 1 1 7h-2l-2 13-4 8h-2l-2 4-4 3-6-2-3-6 1-4 4 3h5l3-1 2-5 1-3v-7l-2-4-6-1 4-4 3-1z" fill="#8C8197"/>
<path transform="translate(597,1026)" d="m0 0 5 2 1 3h2l3 4 4 1 7-1v2h5l2 3 3 1v4l-6 4-5 2v-2h-2v-3l-7-2-3-6-5-3-5-2-1-1v-5z" fill="#031B34"/>
<path transform="translate(475,166)" d="m0 0 5 1v3l5-2v-2h3l2 5 3-2h4l3 4 7-2 2 1-1 5-6 1-5-1-6 2-14-1-1-4-5-1z" fill="#021C36"/>
<path transform="translate(675,822)" d="m0 0 8 1 1 4-6 7-5 4h-2v2l-7 3-3-2v-4h-2l2-5 6-5 6-3h2z" fill="#FFB6A1"/>
<path transform="translate(922,1121)" d="m0 0 1 2-3 5-6 3-3 6-5 3-4 3 1 3-5 5-7 3-3-2 2-4-3-1 5-5 19-13z" fill="#A65C81"/>
<path transform="translate(784,1099)" d="m0 0 5 4h4 4l1 10h-2l-1 4-11 1-2-1v-11z" fill="#7F7090"/>
<path transform="translate(1380,57)" d="m0 0 5 2 2 3 1 5 4-1 1-2 4 1 1 6-2 6-5 1-6-7-10-2 1-5z" fill="#02335C"/>
<path transform="translate(781,1110)" d="m0 0h1v16l2 5 17 3 9-1 6-3 6 4-3 1v-2l-6 2-6 3-19 1-7-2-2-9v-8z" fill="#4C3E71"/>
<path transform="translate(927,677)" d="m0 0 6 3 9 8 8 7 10 8-1 3-11-7-14-9-5-4-4-4-1-4z" fill="#0C5A87"/>
<path transform="translate(807,1110)" d="m0 0h5l5 5-5 2 1 9-4 4-7 1-2-2 6-2-1-7-10-2 1-5 3-1h5z" fill="#95ACCC"/>
<path transform="translate(838,619)" d="m0 0 9 2 10 9 4 5-1 3-11-3-6-4-5-6-1-5z" fill="#4C3E71"/>
<path transform="translate(898,828)" d="m0 0 6 1 10 6 3 2v2l4 1 12 10 1 6-9-5-10-8-13-10z" fill="#4C3E71"/>
<path transform="translate(1031,881)" d="m0 0h1l5 21 1 15-3 1v7l-2 4-5-5 2-9 2-2h3l-1-5-4-6v-16z" fill="#8D89A1"/>
<path transform="translate(804,597)" d="m0 0h1l1 23 1 2 1 16v62h-1l-1-14-2-57z" fill="#EFB0A2"/>
<path transform="translate(908,584)" d="m0 0 9 3 4 6-1 4-6 3h-7l-3-4v-8z" fill="#A55E82"/>
<path transform="translate(799,515)" d="m0 0h1l3 60v10h-1l-2-10-1-4-1-9-1-5-1-12z" fill="#8C8197"/>
<path transform="translate(543,781)" d="m0 0v3l-3 4-10 4-10 5-6 2-3 7-3 22-2 1 1-21 3-9 5-4 12-7 10-4z" fill="#A65D82"/>
<path transform="translate(929,1154)" d="m0 0 2 1-4 4-10 5h-10l-13-2h-13l-4-4-1-3 6 1 11 2 20 2 8-2z" fill="#7E7291"/>
<path transform="translate(160,23)" d="m0 0 9 1 1 3h2v2h4l2-4 9-2-1 7 3 1v2h-6l-3 2h-3v-2l-5 3-3-1-2-5-1-4-1 3-5-1z" fill="#021B34"/>
<path transform="translate(738,660)" d="m0 0h6l-2 5-14 12-4 3-6 1 2-5h2l2-5 2-4 7-4z" fill="#213D6B"/>
<path transform="translate(510,978)" d="m0 0h12l-3 5v18l-3-1-5-9-6-10z" fill="#93AACA"/>
<path transform="translate(1030,750)" d="m0 0 7 1-1 6 1 2v8l-8 6-5 1 1-9 2-2 2-1 1-3 2-2-2-4z" fill="#347E9A"/>
<path transform="translate(412,85)" d="m0 0 4 2h3v2l3 2 3-1 1-2 3 4v2l4-1 10 1v-2l3-1 5 2h3l-1 3-4-1-3 2h-10l-3-1-9 1v-2l-5-1-3-3-2 2-2-3-4-2 1-2z" fill="#021B34"/>
<path transform="translate(232,108)" d="m0 0 5 2 1 4 3-1 2 1v3l3 2-2 4-6 1-3-4-4-2 1-3-3 2 1 3h-4v-5l-3-3 2-1 3 2 4-2z" fill="#021B34"/>
<path transform="translate(259,118)" d="m0 0 5 2v3l4 1v2h2v-2l-2-1 1-3 5 1 1 4 5-1-1 2h-3v5l-4 2-1-2-3 3-4-2v-3l1-1-7-2-1 2-2-2 1-4v2l4-1z" fill="#021B34"/>
<path transform="translate(809,714)" d="m0 0h1l1 16v15l-7 16-7 10-4 5-7 5v-3l9-9 8-13 4-10z" fill="#F9B4A1"/>
<path transform="translate(1028,747)" d="m0 0 11 1 1 9-2 5-2-3-1-3 2-5h-6l2 7-3 1-1 4-3 2-2 9-2-2v-6l3-7 1-10z" fill="#306E90"/>
<path transform="translate(1021,756)" d="m0 0 5 1-3 9v8l3 1-4 2v2h6l-1 4-6 1-4-1-1-4 2-7v-8l2-3z" fill="#7E7291"/>
<path transform="translate(191,100)" d="m0 0h4l1 5 4 1 2-1v6h-3l-7-1h-1l-9 2-6-3h-2l-2 2-1-2h-2v-2l6-2 3-3 2 1-2 5 5-2h6l2 1v-2l2-1z" fill="#021B34"/>
<path transform="translate(808,661)" d="m0 0h1l1 32 1 17v20l-2 3-2 2v-35z" fill="#909BB9"/>
<path transform="translate(666,125)" d="m0 0 10 5-1 5-5 2-6-1-7-6 2-2h4v-2z" fill="#031B34"/>
<path transform="translate(859,633)" d="m0 0 5 2 9 7 2 1v2l4 2 9 7-3 1-1 2-20-16-3-3z" fill="#213D6B"/>
<path transform="translate(897,571)" d="m0 0 5 1-4 3-8 2-1 4h-2v7l-1 1 1 14-3 2-1-1v-19l3-9 9-4z" fill="#347E9A"/>
<path transform="translate(354,65)" d="m0 0 4 3-1 3 2 2 8-2v2l3-1v5l-5-1-2-1v2l-5 1-5-4-3 1-6-3 2-1v-2l6-1v-2z" fill="#021B34"/>
<path transform="translate(688,1127)" d="m0 0 4 2 16 12 14 10 1 2-5-2-10-5-4-1v-2l-5-2-1-3-3-1-7-9z" fill="#224876"/>
<path transform="translate(804,759)" d="m0 0 4 3 1 3 2 1v2l5 1 1 2-22 2 7-11z" fill="#8B8198"/>
<path transform="translate(1378,76)" d="m0 0 9 1 1 6-4 6-9-1-1-3 2-2z" fill="#02335C"/>
<path transform="translate(194,23)" d="m0 0 1 3 2 5 5 2-1 5-2-2 1-2h-6l-2 1v2l5-1 1 5h-2l-1 2-5-2v-2l-5-1v-2l4-2 2-3 2 1-2-7-2-1z" fill="#021B34"/>
<path transform="translate(1262,245)" d="m0 0 4 1 2 5 9 1 5-2 5 1-2 4-4 1h-2l-5 3-3-3-4-2-4-3 1-4-3-1z" fill="#021C35"/>
<path transform="translate(876,170)" d="m0 0 5 5h4v2h8l3 2v3l-6 1v-2l-3 1v-2h-7l-6-4-1-4z" fill="#021C36"/>
<path transform="translate(925,679)" d="m0 0 5 1 6 7 9 7 12 9h-3l-17-11-8-6-4-4z" fill="#234E7B"/>
<path transform="translate(1036,911)" d="m0 0 2 3-1 4h-2v7l-2 4-5-5 2-9z" fill="#8C8197"/>
<path transform="translate(741,787)" d="m0 0h7l-2 4-11 8-4 1-1-3h2l1-3h2v-2z" fill="#A84576"/>
<path transform="translate(505,971)" d="m0 0 3 4v1h8l1-4 8 2-1 4-11 1-8 2-1-5z" fill="#F8B4A2"/>
<path transform="translate(796,1103)" d="m0 0 2 4v6h-2l-1 4h-6l-3-3h2l1-3 4-4 1-3z" fill="#8C8197"/>
<path transform="translate(578,772)" d="m0 0 3 2-1 6-6 3-4-3v-5l3-2z" fill="#A74576"/>
<path transform="translate(689,211)" d="m0 0 4 1 1 4v-2l6-3 6 1-1 7-2-1-3 1-4 1-6-3z" fill="#021B35"/>
<path transform="translate(873,777)" d="m0 0 8 1 5 5-1 4-10-3-3-5z" fill="#213D6B"/>
<path transform="translate(811,743)" d="m0 0 2 3 6 12 7 11v3l-4-1-4-9-7-13-3 3z" fill="#97A4C0"/>
<path transform="translate(1421,371)" d="m0 0h3v4h-2l1 3h-4l-2-1v2l-4 1-4-2 1-5h10z" fill="#021B35"/>
<path transform="translate(786,502)" d="m0 0h15l1 1 1 31-3 1v-31l-14-1z" fill="#939EBB"/>
<path transform="translate(1e3 199)" d="m0 0h6l4 1 2 4h2l-1 2-8 1-4-4-3-2z" fill="#031B34"/>
<path transform="translate(743,663)" d="m0 0m-1 1m-1 1 1 3-26 20-4 2 2-4 16-12z" fill="#52396C"/>
<path transform="translate(587,656)" d="m0 0 2 1-7 7h-2v2l-6 4-8 6h-2v-2h2v-2l17-13z" fill="#7D7C95"/>
<path transform="translate(804,597)" d="m0 0h1l1 23 1 2v15h-2l-1-8z" fill="#E3ABA2"/>
<path transform="translate(1079,296)" d="m0 0 6 1-1 5-3 1v-3h-4l-1 5-6-2 2-5z" fill="#031B34"/>
<path transform="translate(856,250)" d="m0 0 6 5-4 6h-3l-3-4v-3h2z" fill="#021B34"/>
<path transform="translate(801,1094)" d="m0 0 2 1-3 3-3 5-4 1-2-2 1-6 3-1h5z" fill="#A65D82"/>
<path transform="translate(1022,775)" d="m0 0 3 1-3 1v2h6l-1 4-6 1-4-1-1-4z" fill="#8B8096"/>
<path transform="translate(736,540)" d="m0 0 3 1-3 1v2l-6 4-11 9h-2v2l-5 2 2-4 13-10z" fill="#979AB4"/>
<path transform="translate(206,26)" d="m0 0h3v2l3 1-1 3 1 2-7 2-3-3v-4l3-1z" fill="#031B34"/>
<path transform="translate(985,1372)" d="m0 0 4 3h1v5l-2-2v2l2 2-3 7-2-2-1-10z" fill="#286E90"/>
<path transform="translate(544,959)" d="m0 0m-1 1 1 3-16 12-3 1 2-4 11-9z" fill="#E3ACA2"/>
<path transform="translate(620,43)" d="m0 0 2 3 4 1 3-3h6l-1 3-4 2h-4v2l-5-1-4-5z" fill="#021E39"/>
<path transform="translate(1065,1462)" d="m0 0 5 1 5 8 1 6-2 1-4-8-3-2v-3l-2-1z" fill="#286E90"/>
<path transform="translate(853,156)" d="m0 0 3 2v2h8l2 1-1 2h-7l-5 1-4-4z" fill="#031B34"/>
<path transform="translate(283,124)" d="m0 0 2 1 2 6-3 3-6-2 1-6z" fill="#021B34"/>
<path transform="translate(1466,75)" d="m0 0 5 1 6 3 1 2-3 3-5-3v-2l-5-2z" fill="#031B34"/>
<path transform="translate(512,988)" d="m0 0h5l1 7 1 1v5l-3-1-4-8z" fill="#E0B2AB"/>
<path transform="translate(1075,720)" d="m0 0h3l-1 5-8 6-4-1 4-5z" fill="#3C7796"/>
<path transform="translate(1052,1527)" d="m0 0 5 1 1 2 5 1v3l-2 1h-6l-3-5z" fill="#286E90"/>
<path transform="translate(884,588)" d="m0 0 2 1 1 14-3 2-1-1v-15z" fill="#357F9B"/>
<path transform="translate(782,1117)" d="m0 0 1 4 1 9 12 1v2h-9l-5-3-1-4v-7z" fill="#286E90"/>
<path transform="translate(310,126)" d="m0 0 10 2-1 3-4 3v-4l-2 3-2 1v-4l-3 1-1-2z" fill="#021B34"/>
<path transform="translate(1292,23)" d="m0 0 9 2 1 5-4 2-5-5z" fill="#031B34"/>
<path transform="translate(886,177)" d="m0 0h7l3 2v3l-6 1v-2l-3 1v-2l-2-1z" fill="#021B34"/>
<path transform="translate(561,761)" d="m0 0h5v2h3l1 3h-2l-1 2-3-2-6-1 1-3z" fill="#8C8197"/>
<path transform="translate(802,762)" d="m0 0h1v6l3 1v2l-11 2z" fill="#94A9C9"/>
<path transform="translate(1222,1241)" d="m0 0 9 1 5 1 7 2 1 2-9-1-12-3z" fill="#234E7B"/>
<path transform="translate(687,733)" d="m0 0 3 1-11 5-7 3-6 2 4-4 8-4z" fill="#7E7291"/>
<path transform="translate(684,133)" d="m0 0 11 4-3 2-5-1h-6l-1-3z" fill="#031B34"/>
<path transform="translate(1230,35)" d="m0 0 4 1 1 3-3 3-5-1v-5z" fill="#02335C"/>
<path transform="translate(605,770)" d="m0 0h1v7l-4 9-5 3-2-1 4-4 5-8z" fill="#7E7291"/>
<path transform="translate(627,625)" d="m0 0 1 2-5 5-6 4h-2v-2l8-6 1-2z" fill="#337B98"/>
<path transform="translate(708,213)" d="m0 0 1 3 3-2 4-1 2 1-1 3-5 2-6-2v-2h2z" fill="#031B34"/>
<path transform="translate(214,107)" d="m0 0 6 2 1 4h-2v-2l-5 2-3-2 1-3z" fill="#021B35"/>
<path transform="translate(811,743)" d="m0 0 2 3 5 11-4-2-3-6-3 3z" fill="#8A9AB8"/>
<path transform="translate(1599,76)" d="m0 0h1v19l-2-3-1-14h2z" fill="#031B34"/>
<path transform="translate(1424,49)" d="m0 0h3l1 4-2 4h-3l-1-6z" fill="#02335C"/>
<path transform="translate(1371,74)" d="m0 0h2l-1 7h-6l2-6z" fill="#02335C"/>
<path transform="translate(1435,55)" d="m0 0 3 1 1 6h-4l-2-1 1-5z" fill="#02335C"/>
<path transform="translate(1523,308)" d="m0 0 6 2 3-1 1 3-3 3-4-2v-3l-3-1z" fill="#021D37"/>
<path transform="translate(778,764)" d="m0 0 1 3-2 3-9 1 4-4z" fill="#A74676"/>
<path transform="translate(461,91)" d="m0 0h4v2h5l1 2-10 1-2-1v-2h2z" fill="#031B34"/>
<path transform="translate(831,771)" d="m0 0 5 1v4l-4 1-3-1z" fill="#213D6B"/>
<path transform="translate(1016,278)" d="m0 0h4l2 7 2 2-5-1-3-6z" fill="#031B34"/>
<path transform="translate(908,579)" d="m0 0 5 2 5 4 3 5-4-2-8-7z" fill="#DAA69F"/>
<path transform="translate(80,83)" d="m0 0 4 2 3 3-1 2-2 1v-2l-4-1z" fill="#031B34"/>
<path transform="translate(1026,922)" d="m0 0h2l3 5-5 2-1 2h-2z" fill="#A65D82"/>
<path transform="translate(592,922)" d="m0 0m-1 1m-1 1m-1 1m-2 1 4 2-7 5h-2l2-4z" fill="#DEADA7"/>
<path transform="translate(573,773)" d="m0 0h5l-1 2h-2v2h-3l-1 4-1-1v-5z" fill="#A65D82"/>
<path transform="translate(806,715)" d="m0 0h2v11h-2l-1-9z" fill="#6F6287"/>
<path transform="translate(620,43)" d="m0 0 2 3 3 1 1 4-5-1-4-5z" fill="#021B35"/>
<path transform="translate(441,148)" d="m0 0 3 2-2 4-3-1-1 2-1-2 2-4z" fill="#021B35"/>
<path transform="translate(1256,23)" d="m0 0 2 1v2h2l-1 4h-4l-1-5z" fill="#02335C"/>
</svg>
